<svg width="15" height="18" viewBox="0 0 20 23" fill="none" xmlns="http://www.w3.org/2000/svg">
<path d="M10 0C4.47715 0 0 5.14872 0 11.5C0 17.8513 4.47715 23 10 23C15.5229 23 20 17.8513 20 11.5C20 5.14872 15.5229 0 10 0ZM6.40625 4.56799C6.61228 4.55402 6.79852 4.69564 6.9397 4.94701L8.30688 7.92869C8.45083 8.28201 8.36903 8.66032 8.1543 8.91277L7.52808 9.63292C7.48943 9.69383 7.464 9.76243 7.46338 9.83787C7.70353 10.9069 8.432 11.893 9.07473 12.5711C9.71743 13.2492 10.4082 14.1673 11.3049 14.3848C11.4158 14.4204 11.5516 14.4331 11.6309 14.3483L12.3584 13.4962C12.6095 13.2773 12.9728 13.1712 13.241 13.3502H13.2532L15.7202 15.025C16.0823 15.286 16.1198 15.7906 15.8606 16.0975L14.1614 18.0361C13.9105 18.3321 13.5771 18.4316 13.2532 18.432C11.8207 18.3827 10.4672 17.5741 9.3555 16.7432C7.53067 15.2166 5.85678 13.323 4.80592 11.0353C4.40288 10.0761 3.92943 8.85207 3.97462 7.78134C3.97865 7.37853 4.07342 6.98391 4.32008 6.72428L6.0193 4.77018C6.15167 4.64065 6.28262 4.57639 6.40625 4.56799V4.56799Z" fill="white"/>
</svg>
